<?xml version="1.0" encoding="UTF-8"?>
<svg xmlns="http://www.w3.org/2000/svg" xmlns:xlink="http://www.w3.org/1999/xlink" width="77px" height="77px" viewBox="0 0 77 77" version="1.1">
<g id="surface1">
<path style=" stroke:none;fill-rule:nonzero;fill:rgb(0%,0%,0%);fill-opacity:1;" d="M 40.175781 0 C 18.90625 0 1.675781 17.230469 1.675781 38.5 C 1.675781 59.34375 18.226562 76.324219 38.949219 77 C 38.695312 75.347656 37.785156 70.378906 38.097656 69.425781 C 38.839844 66.433594 46.082031 68.105469 50.078125 57.867188 C 51.367188 55.539062 53.382812 53.167969 56.066406 53.167969 C 57.652344 53.167969 61.003906 53.828125 61.382812 50.777344 C 61.507812 47.242188 59.117188 43.5625 60.703125 40.386719 C 62.78125 36.171875 69.996094 36.660156 71.773438 32.386719 C 72.574219 30.542969 72.023438 28.40625 72.574219 26.523438 C 73 24.992188 74.035156 23.769531 75.324219 22.855469 C 69.382812 9.417969 55.878906 0 40.175781 0 Z M 39.4375 8.378906 C 39.6875 7.574219 40.597656 7.089844 41.386719 7.40625 C 42.296875 7.703125 43.164062 8.253906 43.777344 8.996094 C 44.328125 9.667969 44.261719 10.644531 43.585938 11.191406 C 42.578125 11.960938 41.683594 11.382812 41.386719 11.003906 C 41.132812 10.707031 40.835938 10.519531 40.472656 10.390625 C 39.625 10.011719 39.199219 9.167969 39.4375 8.378906 Z M 39.5 18.160156 C 40.175781 17.667969 41.148438 17.796875 41.636719 18.519531 C 42.121094 19.257812 42.3125 20.171875 41.996094 21.015625 C 41.746094 21.695312 41.199219 22.054688 40.535156 22.054688 C 39.4375 22.070312 38.824219 20.957031 39.011719 20.214844 C 38.648438 19.496094 38.824219 18.644531 39.5 18.160156 Z M 30.082031 10.078125 C 30.929688 9.886719 31.734375 10.441406 31.921875 11.242188 L 32.222656 12.46875 C 32.40625 13.3125 31.859375 14.117188 31.058594 14.304688 C 30.019531 14.523438 29.34375 13.878906 29.152344 13.144531 L 28.855469 11.917969 C 28.683594 11.117188 29.230469 10.265625 30.082031 10.078125 Z M 27.394531 39.960938 C 27.753906 39.160156 28.683594 38.863281 29.46875 39.222656 C 30.632812 39.835938 31.542969 40.933594 31.796875 42.210938 C 31.984375 43.058594 31.433594 43.859375 30.566406 44.050781 C 29.59375 44.269531 28.917969 43.625 28.730469 42.882812 C 28.667969 42.523438 28.429688 42.210938 28.050781 42.039062 C 27.347656 41.675781 27.03125 40.703125 27.394531 39.960938 Z M 11.6875 38.75 C 11.6875 39.597656 11.011719 40.277344 10.164062 40.277344 C 9.316406 40.277344 8.640625 39.597656 8.640625 38.75 L 8.640625 37.039062 C 8.640625 36.191406 9.316406 35.515625 10.164062 35.515625 C 11.011719 35.515625 11.6875 36.191406 11.6875 37.039062 Z M 12.304688 29.699219 C 11.453125 29.503906 10.949219 28.660156 11.136719 27.855469 C 11.4375 26.566406 12.429688 25.527344 13.699219 25.167969 C 14.550781 24.917969 15.414062 25.421875 15.601562 26.269531 C 15.855469 27.117188 15.347656 27.980469 14.5 28.171875 C 14.375 28.234375 14.207031 28.359375 14.207031 28.535156 C 13.714844 30.085938 12.429688 29.699219 12.304688 29.699219 Z M 16.832031 54.820312 C 15.746094 55.414062 14.988281 54.820312 14.691406 54.394531 C 14.265625 53.71875 13.714844 53.105469 13.164062 52.554688 C 12.554688 51.9375 12.554688 50.96875 13.164062 50.351562 C 13.78125 49.742188 14.753906 49.742188 15.367188 50.351562 C 16.042969 51.027344 16.71875 51.8125 17.269531 52.617188 C 17.738281 53.355469 17.566406 54.328125 16.832031 54.820312 Z M 20.191406 38.988281 C 20.003906 39.238281 19.941406 39.597656 20.003906 39.898438 C 20.191406 40.75 19.296875 41.816406 18.480469 41.800781 C 17.738281 41.769531 17.128906 41.3125 16.957031 40.578125 C 16.703125 39.472656 16.957031 38.25 17.566406 37.335938 C 18.054688 36.597656 18.96875 36.421875 19.707031 36.847656 C 20.429688 37.273438 20.683594 38.25 20.191406 38.988281 Z M 22.265625 18.457031 C 22.203125 20.089844 20.746094 20.042969 20.746094 20.042969 C 19.894531 20.042969 19.222656 19.367188 19.222656 18.582031 C 19.152344 17.121094 20.019531 15.644531 21.359375 14.917969 C 22.09375 14.558594 23.070312 14.792969 23.433594 15.597656 C 23.792969 16.332031 23.558594 17.308594 22.753906 17.667969 C 22.457031 17.84375 22.265625 18.160156 22.265625 18.457031 Z M 24.042969 23.046875 C 24.894531 23.046875 25.632812 23.722656 25.632812 24.570312 C 25.632812 25.671875 25.996094 26.773438 26.671875 27.683594 C 27.15625 28.359375 27.03125 29.332031 26.371094 29.882812 C 25.117188 30.515625 24.53125 29.949219 24.234375 29.589844 C 23.199219 28.1875 22.582031 26.414062 22.582031 24.636719 C 22.503906 23.707031 23.179688 23.046875 24.042969 23.046875 Z M 25.871094 52.976562 L 24.21875 50.96875 C 23.664062 50.289062 23.792969 49.316406 24.40625 48.765625 C 25.082031 48.214844 26.054688 48.339844 26.605469 48.957031 L 28.257812 50.96875 C 28.808594 51.644531 28.683594 52.617188 28.070312 53.167969 C 27.15625 53.96875 26.179688 53.355469 25.871094 52.976562 Z M 34.246094 65.332031 C 34.058594 66.011719 33.273438 66.65625 32.347656 66.375 L 28.980469 65.398438 C 28.175781 65.148438 27.691406 64.296875 27.945312 63.492188 C 28.195312 62.695312 29.042969 62.207031 29.847656 62.457031 L 33.207031 63.433594 C 33.996094 63.6875 34.484375 64.53125 34.246094 65.332031 Z M 39.199219 33.550781 C 39.011719 33.125 38.714844 32.746094 38.398438 32.445312 C 37.71875 31.894531 37.59375 30.925781 38.144531 30.246094 C 38.695312 29.574219 39.671875 29.445312 40.347656 29.996094 C 41.148438 30.609375 41.746094 31.394531 42.121094 32.320312 C 42.421875 33.125 42.058594 34.035156 41.277344 34.332031 C 40.160156 34.742188 39.4375 34.101562 39.199219 33.550781 Z M 42.988281 56.59375 L 40.851562 56.59375 C 40 56.59375 39.324219 55.921875 39.324219 55.066406 C 39.324219 54.21875 40 53.546875 40.851562 53.546875 L 42.988281 53.546875 C 43.835938 53.546875 44.511719 54.21875 44.511719 55.066406 C 44.511719 55.855469 43.835938 56.59375 42.988281 56.59375 Z M 45.125 44.976562 L 42.988281 44.976562 C 42.136719 44.976562 41.464844 44.300781 41.464844 43.449219 C 41.464844 42.601562 42.136719 41.925781 42.988281 41.925781 L 45.125 41.925781 C 45.976562 41.925781 46.648438 42.601562 46.648438 43.449219 C 46.648438 44.300781 45.976562 44.976562 45.125 44.976562 Z M 53 10.75 C 53.847656 10.566406 54.652344 11.117188 54.839844 11.976562 C 54.90625 12.402344 55.140625 12.828125 55.457031 13.144531 C 56.066406 13.757812 56.003906 14.730469 55.394531 15.34375 C 55.09375 15.644531 54.226562 16.160156 53.191406 15.28125 C 52.515625 14.542969 52.027344 13.632812 51.789062 12.59375 C 51.664062 11.789062 52.152344 10.941406 53 10.75 Z M 52.089844 27.199219 C 51.160156 27.226562 50.503906 26.582031 50.441406 25.796875 L 50.1875 22.980469 C 50.125 22.136719 50.734375 21.394531 51.585938 21.332031 C 52.4375 21.269531 53.175781 21.882812 53.238281 22.730469 L 53.488281 25.546875 C 53.550781 26.394531 52.941406 27.132812 52.089844 27.199219 Z M 56.003906 37.148438 C 55.816406 37.890625 55.203125 38.4375 54.480469 38.371094 C 53.265625 38.261719 52.765625 37.273438 52.957031 36.472656 C 53.082031 35.921875 53.015625 35.371094 52.765625 34.882812 C 52.40625 34.085938 52.707031 33.171875 53.503906 32.808594 C 54.308594 32.445312 55.21875 32.746094 55.582031 33.550781 C 56.113281 34.585938 56.300781 35.9375 56.003906 37.148438 Z M 62.417969 25.1875 C 61.429688 25.246094 60.765625 24.636719 60.703125 23.832031 C 60.703125 23.644531 60.515625 23.46875 60.40625 23.40625 C 59.605469 23.046875 59.246094 22.121094 59.605469 21.332031 C 59.96875 20.53125 60.894531 20.171875 61.679688 20.53125 C 62.84375 21.015625 63.695312 22.179688 63.820312 23.40625 C 63.878906 24.257812 63.269531 25.0625 62.417969 25.1875 Z M 62.417969 25.1875 "/>
</g>
</svg>
