<?xml version="1.0" encoding="UTF-8"?>
<svg xmlns="http://www.w3.org/2000/svg" xmlns:xlink="http://www.w3.org/1999/xlink" width="197px" height="197px" viewBox="0 0 197 197" version="1.1">
<g id="surface1">
<path style=" stroke:none;fill-rule:nonzero;fill:rgb(0%,0%,0%);fill-opacity:1;" d="M 102.78125 0 C 48.367188 0 4.28125 44.082031 4.28125 98.5 C 4.28125 151.832031 46.636719 195.269531 99.648438 197 C 99.003906 192.773438 96.667969 180.066406 97.472656 177.613281 C 99.367188 169.972656 117.902344 174.238281 128.121094 148.050781 C 131.421875 142.101562 136.570312 136.027344 143.445312 136.027344 C 147.507812 136.027344 156.074219 137.714844 157.042969 129.910156 C 157.363281 120.863281 151.25 111.453125 155.3125 103.324219 C 160.621094 92.546875 179.082031 93.796875 183.625 82.855469 C 185.675781 78.148438 184.269531 72.675781 185.675781 67.851562 C 186.761719 63.949219 189.417969 60.816406 192.71875 58.480469 C 177.511719 24.09375 142.964844 0 102.78125 0 Z M 100.894531 21.433594 C 101.535156 19.386719 103.867188 18.140625 105.882812 18.945312 C 108.210938 19.710938 110.425781 21.117188 111.996094 23.007812 C 113.402344 24.738281 113.238281 27.230469 111.511719 28.636719 C 108.933594 30.609375 106.644531 29.121094 105.882812 28.152344 C 105.234375 27.390625 104.472656 26.910156 103.546875 26.585938 C 101.375 25.621094 100.289062 23.449219 100.894531 21.433594 Z M 101.054688 46.457031 C 102.78125 45.207031 105.273438 45.527344 106.523438 47.378906 C 107.769531 49.273438 108.253906 51.605469 107.449219 53.773438 C 106.804688 55.507812 105.398438 56.429688 103.707031 56.429688 C 100.894531 56.46875 99.324219 53.613281 99.804688 51.722656 C 98.882812 49.871094 99.324219 47.703125 101.054688 46.457031 Z M 76.960938 25.78125 C 79.136719 25.296875 81.183594 26.707031 81.667969 28.757812 L 82.433594 31.894531 C 82.914062 34.0625 81.507812 36.117188 79.457031 36.597656 C 76.800781 37.164062 75.074219 35.511719 74.585938 33.625 L 73.824219 30.488281 C 73.382812 28.4375 74.789062 26.265625 76.960938 25.78125 Z M 70.085938 102.238281 C 71.007812 100.191406 73.382812 99.425781 75.390625 100.351562 C 78.371094 101.917969 80.699219 104.734375 81.347656 107.992188 C 81.828125 110.164062 80.421875 112.214844 78.207031 112.695312 C 75.710938 113.261719 73.988281 111.613281 73.5 109.71875 C 73.34375 108.796875 72.738281 107.992188 71.769531 107.550781 C 69.960938 106.625 69.15625 104.132812 70.085938 102.238281 Z M 29.902344 99.144531 C 29.902344 101.316406 28.175781 103.046875 26.003906 103.046875 C 23.832031 103.046875 22.101562 101.316406 22.101562 99.144531 L 22.101562 94.761719 C 22.101562 92.589844 23.832031 90.859375 26.003906 90.859375 C 28.175781 90.859375 29.902344 92.589844 29.902344 94.761719 Z M 31.472656 75.980469 C 29.304688 75.492188 28.015625 73.324219 28.496094 71.269531 C 29.261719 67.972656 31.796875 65.316406 35.054688 64.390625 C 37.222656 63.75 39.4375 65.035156 39.917969 67.207031 C 40.5625 69.378906 39.273438 71.589844 37.101562 72.078125 C 36.78125 72.234375 36.339844 72.554688 36.339844 73 C 35.09375 76.980469 31.796875 75.980469 31.472656 75.980469 Z M 43.058594 140.25 C 40.28125 141.777344 38.351562 140.25 37.585938 139.164062 C 36.5 137.433594 35.09375 135.867188 33.683594 134.457031 C 32.117188 132.886719 32.117188 130.394531 33.683594 128.824219 C 35.253906 127.257812 37.746094 127.257812 39.316406 128.824219 C 41.042969 130.554688 42.773438 132.5625 44.183594 134.617188 C 45.386719 136.507812 44.945312 139 43.058594 140.25 Z M 51.664062 99.746094 C 51.179688 100.390625 51.023438 101.316406 51.179688 102.078125 C 51.664062 104.25 49.371094 106.988281 47.28125 106.941406 C 45.386719 106.863281 43.820312 105.699219 43.378906 103.8125 C 42.734375 100.992188 43.378906 97.855469 44.945312 95.523438 C 46.195312 93.632812 48.527344 93.1875 50.414062 94.273438 C 52.265625 95.359375 52.910156 97.855469 51.664062 99.746094 Z M 56.972656 47.21875 C 56.8125 51.402344 53.074219 51.28125 53.074219 51.28125 C 50.902344 51.28125 49.171875 49.550781 49.171875 47.542969 C 49.007812 43.800781 51.21875 40.019531 54.640625 38.167969 C 56.527344 37.242188 59.023438 37.847656 59.953125 39.902344 C 60.875 41.789062 60.269531 44.28125 58.21875 45.207031 C 57.457031 45.652344 56.972656 46.457031 56.972656 47.21875 Z M 61.515625 58.960938 C 63.691406 58.960938 65.578125 60.691406 65.578125 62.863281 C 65.578125 65.679688 66.503906 68.496094 68.234375 70.828125 C 69.480469 72.554688 69.15625 75.050781 67.46875 76.457031 C 64.253906 78.066406 62.761719 76.617188 62 75.695312 C 59.34375 72.117188 57.777344 67.570312 57.777344 63.027344 C 57.574219 60.652344 59.304688 58.960938 61.515625 58.960938 Z M 66.183594 135.542969 L 61.957031 130.394531 C 60.550781 128.664062 60.875 126.171875 62.445312 124.765625 C 64.167969 123.359375 66.664062 123.675781 68.070312 125.246094 L 72.296875 130.394531 C 73.707031 132.125 73.382812 134.617188 71.8125 136.027344 C 69.480469 138.078125 66.984375 136.507812 66.183594 135.542969 Z M 87.617188 167.152344 C 87.136719 168.886719 85.125 170.539062 82.753906 169.8125 L 74.148438 167.316406 C 72.09375 166.675781 70.847656 164.5 71.496094 162.449219 C 72.132812 160.402344 74.304688 159.152344 76.359375 159.796875 L 84.964844 162.289062 C 86.980469 162.9375 88.222656 165.105469 87.617188 167.152344 Z M 100.289062 85.832031 C 99.804688 84.746094 99.042969 83.777344 98.242188 83.015625 C 96.507812 81.605469 96.1875 79.113281 97.59375 77.382812 C 99.003906 75.65625 101.496094 75.332031 103.226562 76.742188 C 105.273438 78.308594 106.804688 80.320312 107.769531 82.691406 C 108.535156 84.746094 107.609375 87.078125 105.597656 87.839844 C 102.742188 88.886719 100.894531 87.238281 100.289062 85.832031 Z M 109.980469 144.792969 L 104.511719 144.792969 C 102.339844 144.792969 100.609375 143.066406 100.609375 140.890625 C 100.609375 138.71875 102.339844 136.992188 104.511719 136.992188 L 109.980469 136.992188 C 112.152344 136.992188 113.882812 138.71875 113.882812 140.890625 C 113.882812 142.902344 112.152344 144.792969 109.980469 144.792969 Z M 115.453125 115.070312 L 109.980469 115.070312 C 107.808594 115.070312 106.082031 113.339844 106.082031 111.167969 C 106.082031 108.996094 107.808594 107.265625 109.980469 107.265625 L 115.453125 107.265625 C 117.625 107.265625 119.351562 108.996094 119.351562 111.167969 C 119.351562 113.339844 117.625 115.070312 115.453125 115.070312 Z M 135.601562 27.507812 C 137.773438 27.027344 139.824219 28.4375 140.308594 30.648438 C 140.472656 31.734375 141.074219 32.820312 141.878906 33.625 C 143.445312 35.195312 143.285156 37.683594 141.71875 39.253906 C 140.949219 40.019531 138.742188 41.347656 136.085938 39.09375 C 134.355469 37.203125 133.105469 34.875 132.507812 32.214844 C 132.183594 30.164062 133.429688 27.996094 135.601562 27.507812 Z M 133.269531 69.582031 C 130.894531 69.664062 129.210938 68.011719 129.046875 66 L 128.402344 58.800781 C 128.242188 56.632812 129.808594 54.742188 131.980469 54.578125 C 134.15625 54.417969 136.046875 55.984375 136.207031 58.160156 L 136.851562 65.359375 C 137.007812 67.527344 135.445312 69.421875 133.269531 69.582031 Z M 143.285156 95.039062 C 142.800781 96.933594 141.234375 98.339844 139.386719 98.175781 C 136.285156 97.894531 135 95.359375 135.484375 93.3125 C 135.804688 91.90625 135.640625 90.496094 135 89.246094 C 134.074219 87.199219 134.839844 84.867188 136.890625 83.941406 C 138.945312 83.015625 141.273438 83.777344 142.199219 85.832031 C 143.5625 88.484375 144.050781 91.945312 143.285156 95.039062 Z M 159.695312 64.4375 C 157.164062 64.59375 155.472656 63.027344 155.3125 60.972656 C 155.3125 60.492188 154.828125 60.046875 154.550781 59.886719 C 152.496094 58.960938 151.574219 56.589844 152.496094 54.578125 C 153.421875 52.53125 155.792969 51.605469 157.804688 52.53125 C 160.78125 53.773438 162.953125 56.75 163.277344 59.886719 C 163.433594 62.058594 161.867188 64.113281 159.695312 64.4375 Z M 159.695312 64.4375 "/>
</g>
</svg>
