<?xml version="1.0" encoding="UTF-8"?>
<svg xmlns="http://www.w3.org/2000/svg" xmlns:xlink="http://www.w3.org/1999/xlink" width="152px" height="152px" viewBox="0 0 152 152" version="1.1">
<g id="surface1">
<path style=" stroke:none;fill-rule:nonzero;fill:rgb(0%,0%,0%);fill-opacity:1;" d="M 79.304688 0 C 37.320312 0 3.304688 34.011719 3.304688 76 C 3.304688 117.148438 35.984375 150.664062 76.886719 152 C 76.390625 148.738281 74.585938 138.933594 75.207031 137.042969 C 76.667969 131.144531 90.96875 134.4375 98.855469 114.230469 C 101.402344 109.640625 105.375 104.957031 110.679688 104.957031 C 113.8125 104.957031 120.421875 106.257812 121.171875 100.234375 C 121.417969 93.253906 116.699219 85.996094 119.835938 79.722656 C 123.929688 71.40625 138.175781 72.371094 141.679688 63.929688 C 143.261719 60.296875 142.175781 56.074219 143.261719 52.351562 C 144.101562 49.339844 146.148438 46.925781 148.695312 45.121094 C 136.964844 18.589844 110.308594 0 79.304688 0 Z M 77.847656 16.539062 C 78.34375 14.957031 80.140625 13.996094 81.695312 14.617188 C 83.492188 15.207031 85.203125 16.292969 86.414062 17.753906 C 87.5 19.085938 87.371094 21.011719 86.039062 22.09375 C 84.050781 23.617188 82.285156 22.46875 81.695312 21.722656 C 81.195312 21.132812 80.609375 20.761719 79.894531 20.511719 C 78.21875 19.769531 77.378906 18.09375 77.847656 16.539062 Z M 77.972656 35.84375 C 79.304688 34.878906 81.226562 35.128906 82.191406 36.554688 C 83.152344 38.019531 83.527344 39.816406 82.90625 41.488281 C 82.40625 42.828125 81.324219 43.539062 80.019531 43.539062 C 77.847656 43.570312 76.636719 41.367188 77.007812 39.90625 C 76.296875 38.480469 76.636719 36.804688 77.972656 35.84375 Z M 59.382812 19.890625 C 61.058594 19.519531 62.640625 20.605469 63.011719 22.1875 L 63.605469 24.609375 C 63.972656 26.28125 62.890625 27.867188 61.308594 28.238281 C 59.257812 28.675781 57.925781 27.398438 57.546875 25.945312 L 56.960938 23.523438 C 56.621094 21.941406 57.707031 20.265625 59.382812 19.890625 Z M 54.078125 78.882812 C 54.789062 77.304688 56.621094 76.714844 58.167969 77.429688 C 60.46875 78.636719 62.265625 80.808594 62.765625 83.324219 C 63.136719 85 62.050781 86.582031 60.34375 86.953125 C 58.417969 87.390625 57.085938 86.117188 56.710938 84.65625 C 56.589844 83.945312 56.121094 83.324219 55.375 82.984375 C 53.980469 82.269531 53.359375 80.347656 54.078125 78.882812 Z M 23.070312 76.496094 C 23.070312 78.171875 21.738281 79.507812 20.0625 79.507812 C 18.386719 79.507812 17.054688 78.171875 17.054688 76.496094 L 17.054688 73.117188 C 17.054688 71.441406 18.386719 70.105469 20.0625 70.105469 C 21.738281 70.105469 23.070312 71.441406 23.070312 73.117188 Z M 24.285156 58.625 C 22.609375 58.246094 21.617188 56.574219 21.988281 54.988281 C 22.578125 52.445312 24.535156 50.394531 27.046875 49.683594 C 28.71875 49.1875 30.429688 50.179688 30.800781 51.855469 C 31.296875 53.53125 30.300781 55.238281 28.625 55.613281 C 28.378906 55.734375 28.039062 55.980469 28.039062 56.324219 C 27.078125 59.394531 24.535156 58.625 24.285156 58.625 Z M 33.222656 108.214844 C 31.078125 109.390625 29.589844 108.214844 29 107.375 C 28.164062 106.039062 27.078125 104.832031 25.988281 103.742188 C 24.78125 102.53125 24.78125 100.609375 25.988281 99.398438 C 27.199219 98.1875 29.125 98.1875 30.335938 99.398438 C 31.667969 100.734375 33.003906 102.28125 34.089844 103.867188 C 35.019531 105.324219 34.679688 107.25 33.222656 108.214844 Z M 39.863281 76.960938 C 39.488281 77.457031 39.367188 78.171875 39.488281 78.761719 C 39.863281 80.4375 38.09375 82.550781 36.480469 82.511719 C 35.019531 82.453125 33.8125 81.554688 33.46875 80.097656 C 32.972656 77.921875 33.46875 75.503906 34.679688 73.703125 C 35.644531 72.246094 37.441406 71.902344 38.898438 72.738281 C 40.328125 73.578125 40.824219 75.503906 39.863281 76.960938 Z M 43.957031 36.433594 C 43.835938 39.660156 40.949219 39.566406 40.949219 39.566406 C 39.273438 39.566406 37.941406 38.230469 37.941406 36.683594 C 37.8125 33.796875 39.519531 30.878906 42.160156 29.449219 C 43.613281 28.734375 45.539062 29.203125 46.257812 30.789062 C 46.96875 32.242188 46.503906 34.167969 44.921875 34.878906 C 44.332031 35.222656 43.957031 35.84375 43.957031 36.433594 Z M 47.464844 45.492188 C 49.144531 45.492188 50.597656 46.828125 50.597656 48.503906 C 50.597656 50.675781 51.3125 52.851562 52.648438 54.648438 C 53.609375 55.980469 53.359375 57.90625 52.058594 58.992188 C 49.578125 60.234375 48.425781 59.117188 47.835938 58.40625 C 45.789062 55.644531 44.578125 52.136719 44.578125 48.628906 C 44.421875 46.796875 45.757812 45.492188 47.464844 45.492188 Z M 51.066406 104.582031 L 47.804688 100.609375 C 46.71875 99.273438 46.96875 97.351562 48.179688 96.265625 C 49.511719 95.179688 51.4375 95.425781 52.519531 96.636719 L 55.78125 100.609375 C 56.871094 101.945312 56.621094 103.867188 55.410156 104.957031 C 53.609375 106.539062 51.683594 105.324219 51.066406 104.582031 Z M 67.601562 128.96875 C 67.230469 130.308594 65.679688 131.582031 63.851562 131.023438 L 57.210938 129.097656 C 55.625 128.601562 54.664062 126.925781 55.164062 125.339844 C 55.65625 123.761719 57.332031 122.796875 58.917969 123.296875 L 65.554688 125.21875 C 67.113281 125.71875 68.070312 127.390625 67.601562 128.96875 Z M 77.378906 66.226562 C 77.007812 65.386719 76.417969 64.640625 75.800781 64.050781 C 74.460938 62.964844 74.214844 61.042969 75.300781 59.707031 C 76.390625 58.375 78.3125 58.125 79.648438 59.210938 C 81.226562 60.421875 82.40625 61.972656 83.152344 63.800781 C 83.742188 65.386719 83.027344 67.1875 81.476562 67.773438 C 79.273438 68.582031 77.847656 67.3125 77.378906 66.226562 Z M 84.859375 111.71875 L 80.636719 111.71875 C 78.960938 111.71875 77.628906 110.386719 77.628906 108.707031 C 77.628906 107.03125 78.960938 105.699219 80.636719 105.699219 L 84.859375 105.699219 C 86.535156 105.699219 87.867188 107.03125 87.867188 108.707031 C 87.867188 110.257812 86.535156 111.71875 84.859375 111.71875 Z M 89.082031 88.785156 L 84.859375 88.785156 C 83.183594 88.785156 81.851562 87.449219 81.851562 85.773438 C 81.851562 84.097656 83.183594 82.761719 84.859375 82.761719 L 89.082031 82.761719 C 90.757812 82.761719 92.089844 84.097656 92.089844 85.773438 C 92.089844 87.449219 90.757812 88.785156 89.082031 88.785156 Z M 104.625 21.222656 C 106.300781 20.855469 107.882812 21.941406 108.257812 23.648438 C 108.386719 24.484375 108.847656 25.324219 109.46875 25.945312 C 110.679688 27.15625 110.554688 29.074219 109.347656 30.289062 C 108.753906 30.878906 107.050781 31.902344 105 30.164062 C 103.664062 28.703125 102.699219 26.910156 102.238281 24.855469 C 101.988281 23.273438 102.949219 21.601562 104.625 21.222656 Z M 102.828125 53.6875 C 100.996094 53.75 99.695312 52.476562 99.570312 50.925781 L 99.070312 45.367188 C 98.949219 43.695312 100.15625 42.238281 101.832031 42.109375 C 103.511719 41.988281 104.96875 43.195312 105.09375 44.875 L 105.589844 50.429688 C 105.710938 52.101562 104.507812 53.5625 102.828125 53.6875 Z M 110.554688 73.328125 C 110.179688 74.792969 108.972656 75.875 107.546875 75.75 C 105.152344 75.53125 104.164062 73.578125 104.535156 71.996094 C 104.785156 70.914062 104.65625 69.824219 104.164062 68.859375 C 103.449219 67.28125 104.039062 65.480469 105.621094 64.765625 C 107.207031 64.050781 109.003906 64.640625 109.71875 66.226562 C 110.769531 68.273438 111.144531 70.941406 110.554688 73.328125 Z M 123.214844 49.71875 C 121.261719 49.839844 119.957031 48.628906 119.835938 47.042969 C 119.835938 46.675781 119.460938 46.332031 119.246094 46.207031 C 117.660156 45.492188 116.949219 43.664062 117.660156 42.109375 C 118.375 40.53125 120.207031 39.816406 121.757812 40.53125 C 124.054688 41.488281 125.730469 43.785156 125.980469 46.207031 C 126.101562 47.882812 124.890625 49.46875 123.214844 49.71875 Z M 123.214844 49.71875 "/>
</g>
</svg>
