<?xml version="1.0" encoding="UTF-8"?>
<svg xmlns="http://www.w3.org/2000/svg" xmlns:xlink="http://www.w3.org/1999/xlink" width="214px" height="214px" viewBox="0 0 214 214" version="1.1">
<g id="surface1">
<path style=" stroke:none;fill-rule:nonzero;fill:rgb(0%,0%,0%);fill-opacity:1;" d="M 111.652344 0 C 52.539062 0 4.652344 47.886719 4.652344 107 C 4.652344 164.933594 50.660156 212.121094 108.246094 214 C 107.546875 209.410156 105.011719 195.605469 105.882812 192.941406 C 107.941406 184.640625 128.078125 189.273438 139.175781 160.828125 C 142.761719 154.363281 148.355469 147.765625 155.824219 147.765625 C 160.238281 147.765625 169.542969 149.597656 170.59375 141.121094 C 170.941406 131.292969 164.300781 121.070312 168.714844 112.242188 C 174.480469 100.535156 194.535156 101.890625 199.472656 90.003906 C 201.699219 84.890625 200.171875 78.949219 201.699219 73.707031 C 202.878906 69.46875 205.761719 66.0625 209.347656 63.527344 C 192.832031 26.171875 155.300781 0 111.652344 0 Z M 109.601562 23.285156 C 110.296875 21.058594 112.832031 19.707031 115.019531 20.578125 C 117.550781 21.410156 119.953125 22.9375 121.660156 24.992188 C 123.1875 26.871094 123.011719 29.582031 121.132812 31.109375 C 118.335938 33.25 115.847656 31.632812 115.019531 30.582031 C 114.316406 29.753906 113.488281 29.230469 112.484375 28.878906 C 110.121094 27.832031 108.945312 25.472656 109.601562 23.285156 Z M 109.773438 50.464844 C 111.652344 49.109375 114.359375 49.457031 115.714844 51.46875 C 117.070312 53.523438 117.59375 56.058594 116.722656 58.414062 C 116.023438 60.296875 114.492188 61.300781 112.65625 61.300781 C 109.601562 61.34375 107.894531 58.238281 108.417969 56.1875 C 107.414062 54.175781 107.894531 51.820312 109.773438 50.464844 Z M 83.601562 28.007812 C 85.964844 27.480469 88.191406 29.011719 88.714844 31.238281 L 89.546875 34.648438 C 90.070312 37.003906 88.542969 39.234375 86.3125 39.757812 C 83.429688 40.371094 81.550781 38.578125 81.023438 36.527344 L 80.195312 33.117188 C 79.714844 30.890625 81.242188 28.53125 83.601562 28.007812 Z M 76.132812 111.0625 C 77.136719 108.835938 79.714844 108.003906 81.898438 109.011719 C 85.132812 110.710938 87.664062 113.773438 88.367188 117.3125 C 88.890625 119.671875 87.363281 121.898438 84.957031 122.421875 C 82.246094 123.035156 80.371094 121.246094 79.84375 119.1875 C 79.671875 118.183594 79.015625 117.3125 77.964844 116.832031 C 76 115.828125 75.125 113.117188 76.132812 111.0625 Z M 32.484375 107.699219 C 32.484375 110.058594 30.605469 111.9375 28.246094 111.9375 C 25.886719 111.9375 24.007812 110.058594 24.007812 107.699219 L 24.007812 102.9375 C 24.007812 100.578125 25.886719 98.699219 28.246094 98.699219 C 30.605469 98.699219 32.484375 100.578125 32.484375 102.9375 Z M 34.1875 82.535156 C 31.832031 82.007812 30.433594 79.652344 30.953125 77.417969 C 31.785156 73.839844 34.539062 70.953125 38.078125 69.949219 C 40.433594 69.25 42.839844 70.648438 43.363281 73.007812 C 44.0625 75.367188 42.664062 77.769531 40.304688 78.296875 C 39.957031 78.46875 39.476562 78.816406 39.476562 79.300781 C 38.121094 83.625 34.539062 82.535156 34.1875 82.535156 Z M 46.773438 152.351562 C 43.757812 154.011719 41.660156 152.351562 40.828125 151.171875 C 39.648438 149.292969 38.121094 147.589844 36.589844 146.058594 C 34.886719 144.355469 34.886719 141.648438 36.589844 139.941406 C 38.296875 138.238281 41.003906 138.238281 42.710938 139.941406 C 44.585938 141.820312 46.464844 144.003906 47.996094 146.234375 C 49.304688 148.289062 48.824219 150.996094 46.773438 152.351562 Z M 56.121094 108.355469 C 55.597656 109.054688 55.425781 110.058594 55.597656 110.886719 C 56.121094 113.246094 53.632812 116.21875 51.359375 116.171875 C 49.304688 116.085938 47.601562 114.820312 47.121094 112.769531 C 46.421875 109.707031 47.121094 106.300781 48.824219 103.765625 C 50.179688 101.714844 52.714844 101.230469 54.765625 102.410156 C 56.777344 103.589844 57.476562 106.300781 56.121094 108.355469 Z M 61.890625 51.292969 C 61.714844 55.839844 57.652344 55.707031 57.652344 55.707031 C 55.292969 55.707031 53.414062 53.828125 53.414062 51.644531 C 53.238281 47.582031 55.640625 43.472656 59.355469 41.460938 C 61.40625 40.457031 64.117188 41.113281 65.125 43.34375 C 66.128906 45.394531 65.46875 48.101562 63.242188 49.109375 C 62.414062 49.589844 61.890625 50.464844 61.890625 51.292969 Z M 66.824219 64.050781 C 69.1875 64.050781 71.238281 65.929688 71.238281 68.289062 C 71.238281 71.347656 72.242188 74.40625 74.121094 76.941406 C 75.476562 78.816406 75.125 81.527344 73.292969 83.054688 C 69.796875 84.804688 68.179688 83.230469 67.351562 82.226562 C 64.464844 78.339844 62.761719 73.402344 62.761719 68.464844 C 62.542969 65.886719 64.421875 64.050781 66.824219 64.050781 Z M 71.894531 147.238281 L 67.304688 141.648438 C 65.777344 139.765625 66.128906 137.058594 67.832031 135.53125 C 69.707031 134.003906 72.417969 134.347656 73.945312 136.054688 L 78.535156 141.648438 C 80.066406 143.527344 79.714844 146.234375 78.007812 147.765625 C 75.476562 149.992188 72.765625 148.289062 71.894531 147.238281 Z M 95.179688 181.578125 C 94.65625 183.460938 92.472656 185.253906 89.894531 184.464844 L 80.546875 181.753906 C 78.316406 181.058594 76.960938 178.695312 77.664062 176.46875 C 78.359375 174.242188 80.71875 172.886719 82.949219 173.585938 L 92.296875 176.292969 C 94.484375 176.996094 95.835938 179.351562 95.179688 181.578125 Z M 108.945312 93.238281 C 108.417969 92.058594 107.589844 91.007812 106.71875 90.179688 C 104.835938 88.648438 104.488281 85.941406 106.015625 84.0625 C 107.546875 82.183594 110.253906 81.832031 112.132812 83.363281 C 114.359375 85.066406 116.023438 87.25 117.070312 89.828125 C 117.902344 92.058594 116.894531 94.59375 114.710938 95.421875 C 111.609375 96.558594 109.601562 94.765625 108.945312 93.238281 Z M 119.472656 157.289062 L 113.53125 157.289062 C 111.171875 157.289062 109.292969 155.410156 109.292969 153.050781 C 109.292969 150.691406 111.171875 148.8125 113.53125 148.8125 L 119.472656 148.8125 C 121.832031 148.8125 123.710938 150.691406 123.710938 153.050781 C 123.710938 155.234375 121.832031 157.289062 119.472656 157.289062 Z M 125.414062 125 L 119.472656 125 C 117.113281 125 115.238281 123.121094 115.238281 120.761719 C 115.238281 118.402344 117.113281 116.523438 119.472656 116.523438 L 125.414062 116.523438 C 127.777344 116.523438 129.652344 118.402344 129.652344 120.761719 C 129.652344 123.121094 127.777344 125 125.414062 125 Z M 147.304688 29.882812 C 149.664062 29.359375 151.890625 30.890625 152.417969 33.292969 C 152.59375 34.472656 153.246094 35.652344 154.121094 36.527344 C 155.824219 38.230469 155.648438 40.9375 153.949219 42.640625 C 153.113281 43.472656 150.714844 44.914062 147.828125 42.46875 C 145.949219 40.414062 144.59375 37.882812 143.941406 34.996094 C 143.589844 32.765625 144.945312 30.410156 147.304688 29.882812 Z M 144.769531 75.585938 C 142.191406 75.675781 140.359375 73.882812 140.183594 71.695312 L 139.484375 63.875 C 139.308594 61.519531 141.011719 59.464844 143.371094 59.289062 C 145.734375 59.113281 147.785156 60.816406 147.960938 63.179688 L 148.660156 71 C 148.832031 73.355469 147.132812 75.414062 144.769531 75.585938 Z M 155.648438 103.242188 C 155.125 105.296875 153.421875 106.824219 151.414062 106.648438 C 148.046875 106.34375 146.648438 103.589844 147.175781 101.363281 C 147.523438 99.835938 147.347656 98.304688 146.648438 96.949219 C 145.644531 94.722656 146.476562 92.191406 148.703125 91.183594 C 150.933594 90.179688 153.464844 91.007812 154.46875 93.238281 C 155.953125 96.121094 156.480469 99.878906 155.648438 103.242188 Z M 173.476562 69.996094 C 170.726562 70.167969 168.890625 68.464844 168.714844 66.234375 C 168.714844 65.710938 168.1875 65.230469 167.886719 65.054688 C 165.65625 64.050781 164.652344 61.472656 165.65625 59.289062 C 166.660156 57.0625 169.238281 56.058594 171.421875 57.0625 C 174.65625 58.414062 177.015625 61.648438 177.367188 65.054688 C 177.539062 67.414062 175.835938 69.644531 173.476562 69.996094 Z M 173.476562 69.996094 "/>
</g>
</svg>
