<?xml version="1.0" encoding="UTF-8"?>
<svg xmlns="http://www.w3.org/2000/svg" xmlns:xlink="http://www.w3.org/1999/xlink" width="272px" height="272px" viewBox="0 0 272 272" version="1.1">
<g id="surface1">
<path style=" stroke:none;fill-rule:nonzero;fill:rgb(0%,0%,0%);fill-opacity:1;" d="M 141.914062 0 C 66.777344 0 5.914062 60.863281 5.914062 136 C 5.914062 209.636719 64.390625 269.613281 137.582031 272 C 136.695312 266.167969 133.472656 248.621094 134.582031 245.234375 C 137.195312 234.683594 162.792969 240.570312 176.898438 204.417969 C 181.453125 196.199219 188.5625 187.8125 198.058594 187.8125 C 203.667969 187.8125 215.496094 190.144531 216.828125 179.371094 C 217.273438 166.875 208.832031 153.882812 214.441406 142.664062 C 221.769531 127.78125 247.261719 129.503906 253.535156 114.398438 C 256.367188 107.898438 254.425781 100.347656 256.367188 93.683594 C 257.867188 88.296875 261.53125 83.964844 266.085938 80.746094 C 245.09375 33.265625 197.390625 0 141.914062 0 Z M 139.304688 29.597656 C 140.191406 26.765625 143.414062 25.046875 146.191406 26.15625 C 149.410156 27.210938 152.464844 29.15625 154.632812 31.765625 C 156.574219 34.152344 156.351562 37.597656 153.964844 39.539062 C 150.410156 42.261719 147.246094 40.207031 146.191406 38.871094 C 145.300781 37.816406 144.246094 37.152344 142.96875 36.707031 C 139.96875 35.375 138.472656 32.375 139.304688 29.597656 Z M 139.527344 64.140625 C 141.914062 62.417969 145.355469 62.863281 147.078125 65.417969 C 148.800781 68.027344 149.464844 71.25 148.355469 74.246094 C 147.46875 76.636719 145.523438 77.914062 143.191406 77.914062 C 139.304688 77.96875 137.136719 74.023438 137.804688 71.414062 C 136.527344 68.859375 137.136719 65.863281 139.527344 64.140625 Z M 106.261719 35.597656 C 109.261719 34.929688 112.09375 36.875 112.757812 39.707031 L 113.816406 44.039062 C 114.480469 47.035156 112.539062 49.867188 109.707031 50.535156 C 106.039062 51.3125 103.652344 49.035156 102.984375 46.425781 L 101.929688 42.09375 C 101.320312 39.261719 103.261719 36.261719 106.261719 35.597656 Z M 96.765625 141.164062 C 98.042969 138.332031 101.320312 137.277344 104.097656 138.554688 C 108.207031 140.71875 111.425781 144.609375 112.316406 149.105469 C 112.980469 152.105469 111.039062 154.9375 107.984375 155.601562 C 104.539062 156.378906 102.152344 154.105469 101.484375 151.492188 C 101.265625 150.214844 100.429688 149.105469 99.097656 148.496094 C 96.597656 147.21875 95.488281 143.773438 96.765625 141.164062 Z M 41.289062 136.886719 C 41.289062 139.886719 38.902344 142.273438 35.902344 142.273438 C 32.902344 142.273438 30.515625 139.886719 30.515625 136.886719 L 30.515625 130.835938 C 30.515625 127.835938 32.902344 125.449219 35.902344 125.449219 C 38.902344 125.449219 41.289062 127.835938 41.289062 130.835938 Z M 43.453125 104.902344 C 40.457031 104.234375 38.679688 101.238281 39.34375 98.402344 C 40.398438 93.851562 43.898438 90.183594 48.398438 88.90625 C 51.394531 88.019531 54.449219 89.796875 55.117188 92.796875 C 56.003906 95.792969 54.226562 98.847656 51.230469 99.515625 C 50.785156 99.738281 50.175781 100.179688 50.175781 100.792969 C 48.453125 106.289062 43.898438 104.902344 43.453125 104.902344 Z M 59.449219 193.644531 C 55.617188 195.753906 52.949219 193.644531 51.894531 192.144531 C 50.394531 189.753906 48.453125 187.589844 46.507812 185.644531 C 44.34375 183.480469 44.34375 180.039062 46.507812 177.871094 C 48.675781 175.707031 52.117188 175.707031 54.285156 177.871094 C 56.671875 180.257812 59.058594 183.035156 61.003906 185.867188 C 62.667969 188.480469 62.058594 191.921875 59.449219 193.644531 Z M 71.332031 137.722656 C 70.664062 138.609375 70.445312 139.886719 70.664062 140.941406 C 71.332031 143.941406 68.167969 147.71875 65.277344 147.660156 C 62.667969 147.550781 60.503906 145.941406 59.890625 143.332031 C 59.003906 139.441406 59.890625 135.113281 62.058594 131.890625 C 63.78125 129.28125 67 128.667969 69.609375 130.167969 C 72.164062 131.667969 73.054688 135.113281 71.332031 137.722656 Z M 78.664062 65.195312 C 78.441406 70.972656 73.277344 70.804688 73.277344 70.804688 C 70.277344 70.804688 67.890625 68.417969 67.890625 65.640625 C 67.667969 60.476562 70.722656 55.253906 75.441406 52.699219 C 78.050781 51.421875 81.496094 52.257812 82.773438 55.089844 C 84.050781 57.699219 83.214844 61.140625 80.382812 62.417969 C 79.328125 63.03125 78.664062 64.140625 78.664062 65.195312 Z M 84.9375 81.410156 C 87.9375 81.410156 90.546875 83.800781 90.546875 86.796875 C 90.546875 90.683594 91.824219 94.574219 94.210938 97.792969 C 95.933594 100.179688 95.488281 103.625 93.15625 105.566406 C 88.714844 107.789062 86.660156 105.789062 85.605469 104.511719 C 81.9375 99.570312 79.773438 93.296875 79.773438 87.019531 C 79.496094 83.742188 81.882812 81.410156 84.9375 81.410156 Z M 91.378906 187.144531 L 85.546875 180.039062 C 83.605469 177.648438 84.050781 174.207031 86.214844 172.261719 C 88.601562 170.320312 92.046875 170.761719 93.988281 172.929688 L 99.820312 180.039062 C 101.765625 182.425781 101.320312 185.867188 99.152344 187.8125 C 95.933594 190.644531 92.488281 188.480469 91.378906 187.144531 Z M 120.976562 230.792969 C 120.3125 233.183594 117.535156 235.460938 114.257812 234.460938 L 102.375 231.015625 C 99.542969 230.128906 97.820312 227.128906 98.710938 224.296875 C 99.597656 221.464844 102.597656 219.742188 105.429688 220.632812 L 117.3125 224.074219 C 120.089844 224.964844 121.8125 227.960938 120.976562 230.792969 Z M 138.472656 118.507812 C 137.804688 117.007812 136.75 115.675781 135.640625 114.621094 C 133.25 112.675781 132.808594 109.234375 134.75 106.84375 C 136.695312 104.457031 140.136719 104.011719 142.523438 105.957031 C 145.355469 108.121094 147.46875 110.898438 148.800781 114.175781 C 149.855469 117.007812 148.578125 120.230469 145.800781 121.285156 C 141.859375 122.726562 139.304688 120.449219 138.472656 118.507812 Z M 151.855469 199.917969 L 144.300781 199.917969 C 141.304688 199.917969 138.914062 197.53125 138.914062 194.53125 C 138.914062 191.53125 141.304688 189.144531 144.300781 189.144531 L 151.855469 189.144531 C 154.851562 189.144531 157.242188 191.53125 157.242188 194.53125 C 157.242188 197.308594 154.851562 199.917969 151.855469 199.917969 Z M 159.40625 158.878906 L 151.855469 158.878906 C 148.855469 158.878906 146.46875 156.492188 146.46875 153.492188 C 146.46875 150.492188 148.855469 148.105469 151.855469 148.105469 L 159.40625 148.105469 C 162.40625 148.105469 164.792969 150.492188 164.792969 153.492188 C 164.792969 156.492188 162.40625 158.878906 159.40625 158.878906 Z M 187.230469 37.984375 C 190.226562 37.316406 193.058594 39.261719 193.726562 42.316406 C 193.949219 43.816406 194.78125 45.316406 195.890625 46.425781 C 198.058594 48.589844 197.835938 52.035156 195.671875 54.199219 C 194.613281 55.253906 191.5625 57.085938 187.894531 53.976562 C 185.507812 51.367188 183.785156 48.148438 182.953125 44.480469 C 182.507812 41.648438 184.230469 38.652344 187.230469 37.984375 Z M 184.007812 96.070312 C 180.730469 96.183594 178.398438 93.90625 178.175781 91.128906 L 177.289062 81.1875 C 177.066406 78.191406 179.230469 75.582031 182.230469 75.359375 C 185.230469 75.136719 187.839844 77.300781 188.0625 80.300781 L 188.949219 90.242188 C 189.171875 93.238281 187.007812 95.851562 184.007812 96.070312 Z M 197.835938 131.222656 C 197.167969 133.835938 195.003906 135.777344 192.449219 135.554688 C 188.171875 135.167969 186.394531 131.667969 187.0625 128.835938 C 187.507812 126.894531 187.285156 124.949219 186.394531 123.226562 C 185.117188 120.394531 186.175781 117.175781 189.007812 115.898438 C 191.839844 114.621094 195.058594 115.675781 196.335938 118.507812 C 198.222656 122.171875 198.890625 126.949219 197.835938 131.222656 Z M 220.492188 88.964844 C 216.996094 89.1875 214.664062 87.019531 214.441406 84.1875 C 214.441406 83.519531 213.773438 82.910156 213.386719 82.6875 C 210.554688 81.410156 209.277344 78.132812 210.554688 75.359375 C 211.832031 72.527344 215.105469 71.25 217.882812 72.527344 C 221.992188 74.246094 224.992188 78.355469 225.4375 82.6875 C 225.65625 85.6875 223.492188 88.519531 220.492188 88.964844 Z M 220.492188 88.964844 "/>
</g>
</svg>
