<?xml version="1.0" encoding="UTF-8"?>
<svg xmlns="http://www.w3.org/2000/svg" xmlns:xlink="http://www.w3.org/1999/xlink" width="132px" height="132px" viewBox="0 0 132 132" version="1.1">
<g id="surface1">
<path style=" stroke:none;fill-rule:nonzero;fill:rgb(0%,0%,0%);fill-opacity:1;" d="M 68.871094 0 C 32.410156 0 2.871094 29.535156 2.871094 66 C 2.871094 101.734375 31.25 130.839844 66.769531 132 C 66.339844 129.167969 64.773438 120.652344 65.3125 119.011719 C 66.582031 113.886719 79 116.75 85.847656 99.199219 C 88.058594 95.214844 91.511719 91.148438 96.117188 91.148438 C 98.835938 91.148438 104.578125 92.277344 105.226562 87.046875 C 105.441406 80.984375 101.34375 74.679688 104.066406 69.234375 C 107.625 62.011719 119.996094 62.847656 123.039062 55.519531 C 124.410156 52.363281 123.46875 48.695312 124.410156 45.464844 C 125.140625 42.847656 126.917969 40.75 129.128906 39.183594 C 118.941406 16.144531 95.792969 0 68.871094 0 Z M 67.605469 14.363281 C 68.035156 12.988281 69.597656 12.15625 70.945312 12.695312 C 72.507812 13.207031 73.992188 14.148438 75.042969 15.417969 C 75.988281 16.574219 75.875 18.246094 74.71875 19.1875 C 72.992188 20.507812 71.457031 19.511719 70.945312 18.863281 C 70.511719 18.351562 70.003906 18.03125 69.382812 17.8125 C 67.925781 17.167969 67.199219 15.714844 67.605469 14.363281 Z M 67.714844 31.128906 C 68.871094 30.289062 70.539062 30.507812 71.375 31.746094 C 72.210938 33.015625 72.535156 34.578125 71.996094 36.027344 C 71.5625 37.191406 70.625 37.808594 69.492188 37.808594 C 67.605469 37.835938 66.554688 35.925781 66.875 34.65625 C 66.257812 33.417969 66.554688 31.960938 67.714844 31.128906 Z M 51.570312 17.273438 C 53.023438 16.949219 54.398438 17.894531 54.722656 19.269531 L 55.238281 21.371094 C 55.554688 22.824219 54.617188 24.199219 53.242188 24.523438 C 51.460938 24.902344 50.304688 23.792969 49.976562 22.53125 L 49.464844 20.429688 C 49.171875 19.054688 50.113281 17.597656 51.570312 17.273438 Z M 46.960938 68.503906 C 47.578125 67.132812 49.171875 66.621094 50.515625 67.242188 C 52.511719 68.289062 54.074219 70.175781 54.507812 72.359375 C 54.828125 73.816406 53.886719 75.191406 52.402344 75.511719 C 50.730469 75.890625 49.574219 74.785156 49.25 73.515625 C 49.144531 72.898438 48.738281 72.359375 48.089844 72.066406 C 46.878906 71.445312 46.339844 69.777344 46.960938 68.503906 Z M 20.035156 66.429688 C 20.035156 67.886719 18.878906 69.046875 17.421875 69.046875 C 15.96875 69.046875 14.8125 67.886719 14.8125 66.429688 L 14.8125 63.496094 C 14.8125 62.042969 15.96875 60.882812 17.421875 60.882812 C 18.878906 60.882812 20.035156 62.042969 20.035156 63.496094 Z M 21.089844 50.910156 C 19.632812 50.582031 18.773438 49.128906 19.09375 47.753906 C 19.605469 45.542969 21.308594 43.761719 23.488281 43.144531 C 24.941406 42.714844 26.425781 43.578125 26.746094 45.03125 C 27.179688 46.488281 26.3125 47.96875 24.859375 48.296875 C 24.644531 48.402344 24.351562 48.613281 24.351562 48.914062 C 23.515625 51.578125 21.308594 50.910156 21.089844 50.910156 Z M 28.851562 93.976562 C 26.988281 94.996094 25.695312 93.976562 25.183594 93.246094 C 24.457031 92.085938 23.515625 91.039062 22.570312 90.09375 C 21.519531 89.039062 21.519531 87.371094 22.570312 86.320312 C 23.621094 85.269531 25.292969 85.269531 26.34375 86.320312 C 27.5 87.480469 28.660156 88.824219 29.605469 90.199219 C 30.410156 91.464844 30.117188 93.136719 28.851562 93.976562 Z M 34.617188 66.835938 C 34.292969 67.265625 34.1875 67.886719 34.292969 68.398438 C 34.617188 69.855469 33.082031 71.6875 31.679688 71.65625 C 30.410156 71.605469 29.363281 70.824219 29.066406 69.558594 C 28.632812 67.667969 29.066406 65.570312 30.117188 64.003906 C 30.953125 62.738281 32.515625 62.441406 33.78125 63.167969 C 35.023438 63.898438 35.453125 65.570312 34.617188 66.835938 Z M 38.171875 31.640625 C 38.066406 34.441406 35.5625 34.359375 35.5625 34.359375 C 34.105469 34.359375 32.949219 33.199219 32.949219 31.855469 C 32.835938 29.351562 34.320312 26.816406 36.613281 25.574219 C 37.875 24.953125 39.546875 25.359375 40.171875 26.738281 C 40.789062 28 40.386719 29.671875 39.011719 30.289062 C 38.5 30.589844 38.171875 31.128906 38.171875 31.640625 Z M 41.21875 39.507812 C 42.679688 39.507812 43.941406 40.667969 43.941406 42.121094 C 43.941406 44.007812 44.5625 45.898438 45.722656 47.457031 C 46.554688 48.613281 46.339844 50.285156 45.207031 51.230469 C 43.054688 52.308594 42.054688 51.339844 41.542969 50.722656 C 39.765625 48.324219 38.710938 45.277344 38.710938 42.230469 C 38.578125 40.640625 39.738281 39.507812 41.21875 39.507812 Z M 44.347656 90.820312 L 41.515625 87.371094 C 40.570312 86.210938 40.789062 84.542969 41.839844 83.597656 C 42.996094 82.65625 44.667969 82.871094 45.609375 83.921875 L 48.441406 87.371094 C 49.386719 88.53125 49.171875 90.199219 48.121094 91.148438 C 46.554688 92.519531 44.882812 91.464844 44.347656 90.820312 Z M 58.707031 112 C 58.382812 113.164062 57.039062 114.269531 55.449219 113.785156 L 49.683594 112.109375 C 48.304688 111.679688 47.472656 110.226562 47.90625 108.847656 C 48.332031 107.476562 49.789062 106.640625 51.164062 107.074219 L 56.929688 108.742188 C 58.28125 109.175781 59.113281 110.628906 58.707031 112 Z M 67.199219 57.511719 C 66.875 56.785156 66.363281 56.136719 65.828125 55.621094 C 64.664062 54.679688 64.449219 53.011719 65.394531 51.851562 C 66.339844 50.695312 68.007812 50.476562 69.167969 51.421875 C 70.539062 52.472656 71.5625 53.816406 72.210938 55.40625 C 72.722656 56.785156 72.101562 58.347656 70.757812 58.855469 C 68.84375 59.558594 67.605469 58.457031 67.199219 57.511719 Z M 73.695312 97.019531 L 70.027344 97.019531 C 68.570312 97.019531 67.414062 95.863281 67.414062 94.402344 C 67.414062 92.949219 68.570312 91.792969 70.027344 91.792969 L 73.695312 91.792969 C 75.148438 91.792969 76.304688 92.949219 76.304688 94.402344 C 76.304688 95.75 75.148438 97.019531 73.695312 97.019531 Z M 77.359375 77.101562 L 73.695312 77.101562 C 72.238281 77.101562 71.082031 75.941406 71.082031 74.488281 C 71.082031 73.03125 72.238281 71.871094 73.695312 71.871094 L 77.359375 71.871094 C 78.816406 71.871094 79.972656 73.03125 79.972656 74.488281 C 79.972656 75.941406 78.816406 77.101562 77.359375 77.101562 Z M 90.859375 18.429688 C 92.3125 18.113281 93.6875 19.054688 94.011719 20.535156 C 94.125 21.261719 94.527344 21.992188 95.066406 22.53125 C 96.117188 23.582031 96.007812 25.25 94.960938 26.304688 C 94.445312 26.816406 92.964844 27.703125 91.183594 26.195312 C 90.023438 24.925781 89.1875 23.371094 88.785156 21.585938 C 88.570312 20.210938 89.402344 18.757812 90.859375 18.429688 Z M 89.296875 46.625 C 87.707031 46.675781 86.578125 45.570312 86.46875 44.226562 L 86.035156 39.398438 C 85.929688 37.945312 86.976562 36.679688 88.433594 36.570312 C 89.890625 36.464844 91.15625 37.511719 91.265625 38.96875 L 91.695312 43.792969 C 91.800781 45.246094 90.757812 46.515625 89.296875 46.625 Z M 96.007812 63.679688 C 95.683594 64.953125 94.632812 65.890625 93.394531 65.78125 C 91.316406 65.59375 90.457031 63.898438 90.78125 62.523438 C 90.996094 61.582031 90.886719 60.636719 90.457031 59.800781 C 89.835938 58.429688 90.351562 56.863281 91.722656 56.242188 C 93.101562 55.621094 94.660156 56.136719 95.28125 57.511719 C 96.195312 59.289062 96.519531 61.605469 96.007812 63.679688 Z M 107.003906 43.175781 C 105.304688 43.28125 104.171875 42.230469 104.066406 40.851562 C 104.066406 40.535156 103.742188 40.234375 103.554688 40.128906 C 102.179688 39.507812 101.5625 37.917969 102.179688 36.570312 C 102.800781 35.199219 104.390625 34.578125 105.738281 35.199219 C 107.730469 36.027344 109.1875 38.023438 109.402344 40.128906 C 109.507812 41.582031 108.457031 42.960938 107.003906 43.175781 Z M 107.003906 43.175781 "/>
</g>
</svg>
