<?xml version="1.0" encoding="UTF-8"?>
<svg xmlns="http://www.w3.org/2000/svg" xmlns:xlink="http://www.w3.org/1999/xlink" width="113px" height="113px" viewBox="0 0 113 113" version="1.1">
<g id="surface1">
<path style=" stroke:none;fill-rule:nonzero;fill:rgb(0%,0%,0%);fill-opacity:1;" d="M 58.957031 0 C 27.746094 0 2.457031 25.285156 2.457031 56.5 C 2.457031 87.089844 26.75 112.007812 57.160156 113 C 56.789062 110.574219 55.449219 103.285156 55.910156 101.882812 C 57 97.492188 67.628906 99.945312 73.492188 84.921875 C 75.382812 81.507812 78.339844 78.027344 82.28125 78.027344 C 84.609375 78.027344 89.523438 78.996094 90.082031 74.515625 C 90.265625 69.328125 86.757812 63.929688 89.085938 59.269531 C 92.132812 53.085938 102.722656 53.800781 105.328125 47.527344 C 106.503906 44.824219 105.695312 41.6875 106.503906 38.921875 C 107.128906 36.679688 108.648438 34.882812 110.542969 33.542969 C 101.820312 13.820312 82.003906 0 58.957031 0 Z M 57.875 12.296875 C 58.242188 11.117188 59.578125 10.40625 60.734375 10.867188 C 62.070312 11.304688 63.34375 12.113281 64.242188 13.199219 C 65.050781 14.1875 64.953125 15.621094 63.964844 16.425781 C 62.484375 17.554688 61.171875 16.703125 60.734375 16.148438 C 60.363281 15.710938 59.925781 15.4375 59.394531 15.25 C 58.148438 14.695312 57.527344 13.453125 57.875 12.296875 Z M 57.96875 26.648438 C 58.957031 25.929688 60.386719 26.117188 61.101562 27.175781 C 61.816406 28.261719 62.09375 29.601562 61.632812 30.839844 C 61.261719 31.839844 60.460938 32.367188 59.488281 32.367188 C 57.875 32.390625 56.976562 30.753906 57.25 29.667969 C 56.71875 28.609375 56.976562 27.359375 57.96875 26.648438 Z M 44.148438 14.789062 C 45.390625 14.507812 46.570312 15.320312 46.847656 16.496094 L 47.289062 18.296875 C 47.558594 19.539062 46.753906 20.714844 45.578125 20.992188 C 44.054688 21.316406 43.0625 20.367188 42.78125 19.289062 L 42.34375 17.488281 C 42.09375 16.3125 42.898438 15.066406 44.148438 14.789062 Z M 40.203125 58.644531 C 40.730469 57.46875 42.09375 57.03125 43.246094 57.5625 C 44.953125 58.460938 46.289062 60.074219 46.660156 61.945312 C 46.9375 63.191406 46.128906 64.367188 44.859375 64.644531 C 43.429688 64.96875 42.4375 64.019531 42.160156 62.933594 C 42.070312 62.40625 41.722656 61.945312 41.167969 61.691406 C 40.132812 61.160156 39.667969 59.734375 40.203125 58.644531 Z M 17.152344 56.867188 C 17.152344 58.113281 16.160156 59.109375 14.914062 59.109375 C 13.671875 59.109375 12.679688 58.113281 12.679688 56.867188 L 12.679688 54.355469 C 12.679688 53.113281 13.671875 52.121094 14.914062 52.121094 C 16.160156 52.121094 17.152344 53.113281 17.152344 54.355469 Z M 18.054688 43.582031 C 16.808594 43.300781 16.070312 42.058594 16.34375 40.878906 C 16.785156 38.988281 18.242188 37.460938 20.105469 36.933594 C 21.351562 36.566406 22.621094 37.304688 22.894531 38.550781 C 23.265625 39.796875 22.523438 41.0625 21.28125 41.34375 C 21.097656 41.433594 20.847656 41.617188 20.847656 41.875 C 20.128906 44.152344 18.242188 43.582031 18.054688 43.582031 Z M 24.699219 80.449219 C 23.105469 81.324219 21.996094 80.449219 21.558594 79.824219 C 20.9375 78.832031 20.128906 77.933594 19.320312 77.125 C 18.421875 76.222656 18.421875 74.796875 19.320312 73.894531 C 20.222656 72.996094 21.652344 72.996094 22.550781 73.894531 C 23.542969 74.886719 24.535156 76.039062 25.34375 77.214844 C 26.03125 78.300781 25.78125 79.730469 24.699219 80.449219 Z M 29.632812 57.214844 C 29.355469 57.582031 29.265625 58.113281 29.355469 58.554688 C 29.632812 59.800781 28.320312 61.367188 27.121094 61.34375 C 26.03125 61.296875 25.136719 60.628906 24.882812 59.546875 C 24.511719 57.929688 24.882812 56.132812 25.78125 54.792969 C 26.496094 53.707031 27.835938 53.453125 28.917969 54.074219 C 29.980469 54.699219 30.351562 56.132812 29.632812 57.214844 Z M 32.675781 27.085938 C 32.585938 29.484375 30.445312 29.414062 30.445312 29.414062 C 29.195312 29.414062 28.207031 28.421875 28.207031 27.269531 C 28.109375 25.125 29.378906 22.957031 31.34375 21.894531 C 32.421875 21.363281 33.855469 21.710938 34.390625 22.890625 C 34.917969 23.96875 34.574219 25.402344 33.394531 25.929688 C 32.957031 26.1875 32.675781 26.648438 32.675781 27.085938 Z M 35.285156 33.820312 C 36.535156 33.820312 37.617188 34.8125 37.617188 36.058594 C 37.617188 37.671875 38.148438 39.292969 39.140625 40.625 C 39.855469 41.617188 39.667969 43.046875 38.699219 43.855469 C 36.859375 44.78125 36 43.949219 35.5625 43.421875 C 34.042969 41.367188 33.140625 38.761719 33.140625 36.152344 C 33.023438 34.789062 34.019531 33.820312 35.285156 33.820312 Z M 37.964844 77.746094 L 35.539062 74.796875 C 34.730469 73.800781 34.917969 72.375 35.816406 71.566406 C 36.808594 70.757812 38.238281 70.941406 39.042969 71.84375 L 41.46875 74.796875 C 42.277344 75.789062 42.09375 77.214844 41.195312 78.027344 C 39.855469 79.203125 38.421875 78.300781 37.964844 77.746094 Z M 50.257812 95.878906 C 49.980469 96.875 48.828125 97.820312 47.46875 97.40625 L 42.53125 95.972656 C 41.351562 95.605469 40.640625 94.359375 41.011719 93.179688 C 41.375 92.007812 42.621094 91.289062 43.800781 91.660156 L 48.734375 93.089844 C 49.890625 93.460938 50.605469 94.703125 50.257812 95.878906 Z M 57.527344 49.234375 C 57.25 48.613281 56.8125 48.054688 56.351562 47.613281 C 55.355469 46.808594 55.171875 45.382812 55.980469 44.386719 C 56.789062 43.398438 58.21875 43.210938 59.210938 44.019531 C 60.386719 44.917969 61.261719 46.070312 61.816406 47.429688 C 62.253906 48.613281 61.722656 49.949219 60.574219 50.382812 C 58.933594 50.984375 57.875 50.042969 57.527344 49.234375 Z M 63.085938 83.054688 L 59.949219 83.054688 C 58.699219 83.054688 57.710938 82.066406 57.710938 80.8125 C 57.710938 79.570312 58.699219 78.582031 59.949219 78.582031 L 63.085938 78.582031 C 64.332031 78.582031 65.320312 79.570312 65.320312 80.8125 C 65.320312 81.96875 64.332031 83.054688 63.085938 83.054688 Z M 66.222656 66.003906 L 63.085938 66.003906 C 61.839844 66.003906 60.851562 65.011719 60.851562 63.765625 C 60.851562 62.519531 61.839844 61.527344 63.085938 61.527344 L 66.222656 61.527344 C 67.472656 61.527344 68.460938 62.519531 68.460938 63.765625 C 68.460938 65.011719 67.472656 66.003906 66.222656 66.003906 Z M 77.78125 15.777344 C 79.023438 15.507812 80.203125 16.3125 80.480469 17.578125 C 80.578125 18.203125 80.921875 18.828125 81.382812 19.289062 C 82.28125 20.1875 82.1875 21.617188 81.292969 22.519531 C 80.851562 22.957031 79.582031 23.714844 78.058594 22.425781 C 77.066406 21.339844 76.351562 20.007812 76.003906 18.480469 C 75.820312 17.300781 76.535156 16.058594 77.78125 15.777344 Z M 76.445312 39.914062 C 75.082031 39.957031 74.117188 39.011719 74.023438 37.859375 L 73.652344 33.726562 C 73.5625 32.484375 74.457031 31.398438 75.703125 31.304688 C 76.953125 31.214844 78.035156 32.113281 78.128906 33.359375 L 78.496094 37.488281 C 78.585938 38.734375 77.695312 39.820312 76.445312 39.914062 Z M 82.1875 54.515625 C 81.910156 55.605469 81.011719 56.40625 79.953125 56.3125 C 78.171875 56.152344 77.4375 54.699219 77.714844 53.523438 C 77.898438 52.71875 77.804688 51.910156 77.4375 51.191406 C 76.90625 50.019531 77.347656 48.679688 78.519531 48.148438 C 79.699219 47.613281 81.035156 48.054688 81.566406 49.234375 C 82.347656 50.753906 82.625 52.738281 82.1875 54.515625 Z M 91.601562 36.960938 C 90.148438 37.050781 89.175781 36.152344 89.085938 34.972656 C 89.085938 34.699219 88.808594 34.441406 88.648438 34.351562 C 87.472656 33.820312 86.945312 32.460938 87.472656 31.304688 C 88.003906 30.132812 89.363281 29.601562 90.519531 30.132812 C 92.222656 30.839844 93.472656 32.550781 93.65625 34.351562 C 93.746094 35.597656 92.847656 36.777344 91.601562 36.960938 Z M 91.601562 36.960938 "/>
</g>
</svg>
